<svg xmlns="http://www.w3.org/2000/svg" width="3627" height="1024" viewBox="0 -154 3627 1024"><g id="byNEYWERSON"><path d="M0-154L0 401L384-154ZM1493-154L981-154L981 870L1371 870L1371 553L1493 553Q1730 546 1816 434Q1901 324 1896 205Q1901 85 1816-29Q1730-145 1493-154ZM2225-154L1752-154L1752-141Q1854-83 1901 11.50Q1948 106 1948 205Q1948 304 1901 396Q1854 488 1752 546L1752 870L2219 870Q2503 862 2638 716Q2774 568 2773 358Q2781 176 2663 16.50Q2545-143 2225-154ZM2816-154L2752 51Q2755 53 2784 141Q2811 223 2816 358Q2824 485 2768.50 612.50Q2713 740 2517 870L2859 870L2923 717L3179 717L3243 870L3627 870L3243-154ZM3488-153L3487-153Q3445-153 3414-123Q3383-93 3383-50.50Q3383-8 3413.50 23.50Q3444 55 3486 55Q3528 55 3561 24Q3591-6 3591-49.50Q3591-93 3560.50-123Q3530-153 3488-153ZM3488-134Q3521-134 3545.50-109.50Q3570-85 3570-49.50Q3570-14 3545 11Q3523 35 3486 35Q3453 35 3429 9.50Q3405-16 3405-50.50Q3405-85 3429-109.50Q3453-134 3488-134ZM3504-109L3440-109L3440 11L3465 11L3465-36L3491-36Q3507-36 3507-23L3507-12Q3507 4 3511 11L3539 11L3539 5Q3533 2 3533-5Q3533-18 3532-21L3532-32Q3530-39 3529-40L3518-48Q3537-58 3537-77Q3537-94 3528-102Q3519-110 3504-109ZM3465-88L3493-88Q3504-88 3507.50-85Q3511-82 3511-73.50Q3511-65 3507.50-61.50Q3504-58 3493-58L3465-58ZM599 102L343 443L599 443ZM1367 102L1410 102Q1445 100 1489 115Q1533 130 1538 187Q1534 252 1486 275Q1441 296 1410 294L1367 294ZM2135 145L2199 145Q2262 142 2324 186Q2386 230 2391 358Q2386 486 2323 529Q2260 572 2199 571L2135 571ZM3042 209L3114 486L2967 486ZM2 742L2 870L599 870L599 742Z"/> </g></svg>