<?xml version="1.0"?>
<svg width="3627" height="1024" xmlns="http://www.w3.org/2000/svg" xmlns:svg="http://www.w3.org/2000/svg">
 <g class="byNEYWERSON">
  <path d="m-0.11,0.03l0,555l384,-555l-384,0zm1493,0l-512,0l0,1024l390,0l0,-317l122,0q237,-7 323,-119q85,-110 80,-229q5,-120 -80,-234q-86,-116 -323,-125zm732,0l-473,0l0,13q102,58 149,152.5q47,94.5 47,193.5q0,99 -47,191q-47,92 -149,150l0,324l467,0q284,-8 419,-154q136,-148 135,-358q8,-182 -110,-341.5q-118,-159.5 -438,-170.5zm591,0l-64,205q3,2 32,90q27,82 32,217q8,127 -47.5,254.5q-55.5,127.5 -251.5,257.5l342,0l64,-153l256,0l64,153l384,0l-384,-1024l-427,0zm672,1l-1,0q-42,0 -73,30q-31,30 -31,72.5q0,42.5 30.5,74q30.5,31.5 72.5,31.5q42,0 75,-31q30,-30 30,-73.5q0,-43.5 -30.5,-73.5q-30.5,-30 -72.5,-30zm0,19q33,0 57.5,24.5q24.5,24.5 24.5,60q0,35.5 -25,60.5q-22,24 -59,24q-33,0 -57,-25.5q-24,-25.5 -24,-60q0,-34.5 24,-59q24,-24.5 59,-24.5zm16,25l-64,0l0,120l25,0l0,-47l26,0q16,0 16,13l0,11q0,16 4,23l28,0l0,-6q-6,-3 -6,-10q0,-13 -1,-16l0,-11q-2,-7 -3,-8l-11,-8q19,-10 19,-29q0,-17 -9,-25q-9,-8 -24,-7zm-39,21l28,0q11,0 14.5,3q3.5,3 3.5,11.5q0,8.5 -3.5,12q-3.5,3.5 -14.5,3.5l-28,0l0,-30zm-2866,190l-256,341l256,0l0,-341zm768,0l43,0q35,-2 79,13q44,15 49,72q-4,65 -52,88q-45,21 -76,19l-43,0l0,-192zm768,43l64,0q63,-3 125,41q62,44 67,172q-5,128 -68,171q-63,43 -124,42l-64,0l0,-426zm907,64l72,277l-147,0l75,-277zm-3040,533l0,128l597,0l0,-128l-597,0z" fill="#0072bc" id="svg_1"/>
 </g>
</svg>