<?xml version="1.0" encoding="UTF-8"?>
<svg xmlns="http://www.w3.org/2000/svg" xmlns:xlink="http://www.w3.org/1999/xlink" width="85px" height="24px" viewBox="0 0 85 24" version="1.1">
<g id="byNEYWERSON">
<path style=" stroke:none;fill-rule:nonzero;fill:rgb(0%,44.705883%,73.725492%);fill-opacity:1;" d="M -0.00390625 0 L -0.00390625 13.007812 L 8.996094 0 Z M 34.988281 0 L 22.988281 0 L 22.988281 24 L 32.128906 24 L 32.128906 16.570312 L 34.988281 16.570312 C 38.6875 16.460938 41.210938 15.53125 42.554688 13.78125 C 43.882812 12.0625 44.507812 10.273438 44.429688 8.414062 C 44.507812 6.539062 43.882812 4.710938 42.554688 2.929688 C 41.210938 1.117188 38.6875 0.140625 34.988281 0 Z M 52.140625 0 L 41.054688 0 L 41.054688 0.304688 C 42.648438 1.210938 43.8125 2.402344 44.546875 3.878906 C 45.28125 5.355469 45.648438 6.867188 45.648438 8.414062 C 45.648438 9.960938 45.28125 11.453125 44.546875 12.890625 C 43.8125 14.328125 42.648438 15.5 41.054688 16.40625 L 41.054688 24 L 52 24 C 56.4375 23.875 59.710938 22.671875 61.820312 20.390625 C 63.945312 18.078125 65 15.28125 64.984375 12 C 65.109375 9.15625 64.25 6.488281 62.40625 3.996094 C 60.5625 1.503906 57.140625 0.171875 52.140625 0 Z M 65.992188 0 L 64.492188 4.804688 C 64.539062 4.835938 64.789062 5.539062 65.242188 6.914062 C 65.664062 8.195312 65.914062 9.890625 65.992188 12 C 66.117188 13.984375 65.746094 15.972656 64.878906 17.964844 C 64.011719 19.957031 62.046875 21.96875 58.984375 24 L 67 24 L 68.5 20.414062 L 74.5 20.414062 L 76 24 L 84.996094 24 L 76 0 Z M 81.738281 0.0234375 L 81.714844 0.0234375 C 81.058594 0.0234375 80.488281 0.257812 80.003906 0.726562 C 79.519531 1.195312 79.277344 1.761719 79.277344 2.425781 C 79.277344 3.089844 79.515625 3.667969 79.992188 4.160156 C 80.46875 4.652344 81.035156 4.898438 81.691406 4.898438 C 82.347656 4.898438 82.933594 4.65625 83.449219 4.171875 C 83.917969 3.703125 84.152344 3.128906 84.152344 2.449219 C 84.152344 1.769531 83.914062 1.195312 83.4375 0.726562 C 82.960938 0.257812 82.394531 0.0234375 81.738281 0.0234375 Z M 81.738281 0.46875 C 82.253906 0.46875 82.703125 0.660156 83.085938 1.042969 C 83.46875 1.425781 83.660156 1.894531 83.660156 2.449219 C 83.660156 3.003906 83.464844 3.476562 83.074219 3.867188 C 82.730469 4.242188 82.269531 4.429688 81.691406 4.429688 C 81.175781 4.429688 80.730469 4.230469 80.355469 3.832031 C 79.980469 3.433594 79.792969 2.964844 79.792969 2.425781 C 79.792969 1.886719 79.980469 1.425781 80.355469 1.042969 C 80.730469 0.660156 81.191406 0.46875 81.738281 0.46875 Z M 82.113281 1.054688 L 80.613281 1.054688 L 80.613281 3.867188 L 81.199219 3.867188 L 81.199219 2.765625 L 81.808594 2.765625 C 82.058594 2.765625 82.183594 2.867188 82.183594 3.070312 L 82.183594 3.328125 C 82.183594 3.578125 82.214844 3.757812 82.277344 3.867188 L 82.933594 3.867188 L 82.933594 3.726562 C 82.839844 3.679688 82.792969 3.601562 82.792969 3.492188 C 82.792969 3.289062 82.785156 3.164062 82.769531 3.117188 L 82.769531 2.859375 C 82.738281 2.75 82.714844 2.6875 82.699219 2.671875 L 82.441406 2.484375 C 82.738281 2.328125 82.886719 2.101562 82.886719 1.804688 C 82.886719 1.539062 82.816406 1.34375 82.675781 1.21875 C 82.535156 1.09375 82.347656 1.039062 82.113281 1.054688 Z M 81.199219 1.546875 L 81.855469 1.546875 C 82.027344 1.546875 82.140625 1.570312 82.195312 1.617188 C 82.25 1.664062 82.277344 1.753906 82.277344 1.886719 C 82.277344 2.019531 82.25 2.113281 82.195312 2.167969 C 82.140625 2.222656 82.027344 2.25 81.855469 2.25 L 81.199219 2.25 Z M 14.035156 6 L 8.035156 13.992188 L 14.035156 13.992188 Z M 32.035156 6 L 33.042969 6 C 33.589844 5.96875 34.207031 6.070312 34.894531 6.304688 C 35.582031 6.539062 35.960938 7.101562 36.039062 7.992188 C 35.976562 9.007812 35.574219 9.695312 34.824219 10.054688 C 34.121094 10.382812 33.527344 10.53125 33.042969 10.5 L 32.035156 10.5 Z M 50.03125 7.007812 L 51.53125 7.007812 C 52.515625 6.960938 53.492188 7.28125 54.460938 7.96875 C 55.429688 8.65625 55.953125 10 56.03125 12 C 55.953125 14 55.421875 15.335938 54.4375 16.007812 C 53.453125 16.679688 52.484375 17.007812 51.53125 16.992188 L 50.03125 16.992188 Z M 71.289062 8.507812 L 72.976562 15 L 69.53125 15 Z M 0.0429688 21 L 0.0429688 24 L 14.035156 24 L 14.035156 21 Z M 0.0429688 21 "/>
</g>
</svg>
